<svg xmlns="http://www.w3.org/2000/svg" viewBox="0 0 64 64"><g><rect x="2" y="2" width="60" height="60" rx="12" fill="#222"/><g><g><path d="M32 8c-6 0-10 4-10 10 0 4 2 7 6 9-2 1-4 3-4 6 0 4 4 7 8 7s8-3 8-7c0-3-2-5-4-6 4-2 6-5 6-9 0-6-4-10-10-10zm0 2c5 0 8 3 8 8 0 3-2 6-6 7-4-1-6-4-6-7 0-5 3-8 8-8zm0 18c3 0 6 2 6 5 0 3-3 5-6 5s-6-2-6-5c0-3 3-5 6-5z" fill="#f8f6f0"/><g><rect x="12" y="54" width="40" height="4" rx="2" fill="#f4a6c3"/><rect x="20" y="48" width="24" height="4" rx="2" fill="#f4a6c3"/></g></g></g></g></svg>